# xmcd
#
# Track frame offsets:
#	150
#	14445
#	30550
#	45333
#	47700
#	53739
#	64762
#	77879
#	91530
#	105069
#	114019
#	127210
#	138465
#	148987
#
# Disc length: 2206 seconds
#
# Revision: 1
# Processed by: cddbd v1.5.1PL2 Copyright (c) Steve Scherf et al.
# Submitted via: audiograbber 1.83.01
#
DISCID=b0089c0e
DTITLE=Style High Club - Creativity Department
DYEAR=2006
DGENRE=Hip-Hop
TTITLE0=See For Miles
TTITLE1=People
TTITLE2=Just Listen
TTITLE3=Where Is She
TTITLE4=Whipcrack
TTITLE5=See The Sun
TTITLE6=Old Man
TTITLE7=The Music
TTITLE8=Untitled
TTITLE9=Bump
TTITLE10=Girls
TTITLE11=Have A Nice Day
TTITLE12=Chic To The Max
TTITLE13=Lift Up
EXTD=
EXTT0=
EXTT1=
EXTT2=
EXTT3=
EXTT4=
EXTT5=
EXTT6=
EXTT7=
EXTT8=
EXTT9=
EXTT10=
EXTT11=
EXTT12=
EXTT13=
PLAYORDER=
